<svg width="40" height="40" viewBox="0 0 40 40" fill="none" xmlns="http://www.w3.org/2000/svg">
<g clip-path="url(#clip0)">
<path d="M20.0083 11.0156C14.3297 11.0156 9.74937 15.0234 9.74937 19.9922C9.74937 24.9609 14.3297 28.9687 20.0083 28.9687C25.6869 28.9687 30.2672 24.9609 30.2672 19.9922C30.2672 15.0234 25.6869 11.0156 20.0083 11.0156ZM20.0083 25.8281C16.3387 25.8281 13.3387 23.2109 13.3387 19.9922C13.3387 16.7734 16.3297 14.1562 20.0083 14.1562C23.6869 14.1562 26.6779 16.7734 26.6779 19.9922C26.6779 23.2109 23.6779 25.8281 20.0083 25.8281ZM33.0797 10.6484C33.0797 11.8125 32.0083 12.7422 30.6869 12.7422C29.3565 12.7422 28.294 11.8047 28.294 10.6484C28.294 9.49219 29.3654 8.55469 30.6869 8.55469C32.0083 8.55469 33.0797 9.49219 33.0797 10.6484ZM39.8744 12.7734C39.7226 9.96875 38.9904 7.48437 36.6422 5.4375C34.3029 3.39062 31.4637 2.75 28.2583 2.60937C24.9547 2.44531 15.0529 2.44531 11.7494 2.60937C8.55294 2.74219 5.71366 3.38281 3.36544 5.42969C1.01723 7.47656 0.294015 9.96094 0.133301 12.7656C-0.0541992 15.6562 -0.0541992 24.3203 0.133301 27.2109C0.285087 30.0156 1.01723 32.5 3.36544 34.5469C5.71366 36.5937 8.54401 37.2344 11.7494 37.375C15.0529 37.5391 24.9547 37.5391 28.2583 37.375C31.4637 37.2422 34.3029 36.6016 36.6422 34.5469C38.9815 32.5 39.7137 30.0156 39.8744 27.2109C40.0619 24.3203 40.0619 15.6641 39.8744 12.7734ZM35.6065 30.3125C34.9101 31.8437 33.5619 33.0234 31.8029 33.6406C29.169 34.5547 22.919 34.3437 20.0083 34.3437C17.0976 34.3437 10.8387 34.5469 8.21366 33.6406C6.46366 33.0312 5.11544 31.8516 4.41009 30.3125C3.36544 28.0078 3.60652 22.5391 3.60652 19.9922C3.60652 17.4453 3.37437 11.9687 4.41009 9.67187C5.10652 8.14062 6.45473 6.96094 8.21366 6.34375C10.8476 5.42969 17.0976 5.64062 20.0083 5.64062C22.919 5.64062 29.1779 5.4375 31.8029 6.34375C33.5529 6.95312 34.9012 8.13281 35.6065 9.67187C36.6512 11.9766 36.4101 17.4453 36.4101 19.9922C36.4101 22.5391 36.6512 28.0156 35.6065 30.3125Z" fill="white"/>
</g>
<defs>
<clipPath id="clip0">
<rect width="40" height="40" fill="white"/>
</clipPath>
</defs>
</svg>
