<svg width="40" height="35" viewBox="0 0 40 35" fill="none" xmlns="http://www.w3.org/2000/svg">
<path d="M37.1429 0H2.84821C1.27679 0 0 1.13281 0 2.52344V32.4766C0 33.8672 1.27679 35 2.84821 35H37.1429C38.7143 35 40 33.8672 40 32.4766V2.52344C40 1.13281 38.7143 0 37.1429 0ZM12.0893 30H6.16071V13.2969H12.0982V30H12.0893ZM9.125 11.0156C7.22321 11.0156 5.6875 9.66406 5.6875 8.00781C5.6875 6.35156 7.22321 5 9.125 5C11.0179 5 12.5625 6.35156 12.5625 8.00781C12.5625 9.67187 11.0268 11.0156 9.125 11.0156V11.0156ZM34.3125 30H28.3839V21.875C28.3839 19.9375 28.3393 17.4453 25.3036 17.4453C22.2143 17.4453 21.7411 19.5547 21.7411 21.7344V30H15.8125V13.2969H21.5V15.5781H21.5804C22.375 14.2656 24.3125 12.8828 27.1964 12.8828C33.1964 12.8828 34.3125 16.3437 34.3125 20.8437V30V30Z" fill="black"/>
</svg>
